<?xml version="1.0" encoding="utf-8" standalone="no"?>
<!DOCTYPE svg PUBLIC "-//W3C//DTD SVG 1.1//EN"
  "http://www.w3.org/Graphics/SVG/1.1/DTD/svg11.dtd">
<!-- Created with matplotlib (http://matplotlib.org/) -->
<svg height="144pt" version="1.1" viewBox="0 0 198 144" width="198pt" xmlns="http://www.w3.org/2000/svg" xmlns:xlink="http://www.w3.org/1999/xlink">
 <defs>
  <style type="text/css">
*{stroke-linecap:butt;stroke-linejoin:round;}
  </style>
 </defs>
 <g id="figure_1">
  <g id="patch_1">
   <path d="M 0 144 
L 198 144 
L 198 0 
L 0 0 
z
" style="fill:#ffffff;"/>
  </g>
  <g id="axes_1">
   <g id="patch_2">
    <path d="M 43.308 55.89 
L 187.05 55.89 
L 187.05 3.72 
L 43.308 3.72 
z
" style="fill:#ffffff;"/>
   </g>
   <g id="matplotlib.axis_1"/>
   <g id="matplotlib.axis_2">
    <g id="ytick_1">
     <g id="line2d_1">
      <defs>
       <path d="M 0 0 
L -4 0 
" id="mc82a9331a4" style="stroke:#000000;"/>
      </defs>
      <g>
       <use style="stroke:#000000;" x="43.308" xlink:href="#mc82a9331a4" y="55.89"/>
      </g>
     </g>
     <g id="text_1">
      <text style="font-family:DejaVu Sans;font-size:6px;font-style:normal;font-weight:400;text-anchor:end;" transform="rotate(-0, 35.808, 58.169531)" x="35.808" y="58.169531">0</text>
     </g>
    </g>
    <g id="ytick_2">
     <g id="line2d_2">
      <g>
       <use style="stroke:#000000;" x="43.308" xlink:href="#mc82a9331a4" y="20.833963"/>
      </g>
     </g>
     <g id="text_2">
      <text style="font-family:DejaVu Sans;font-size:6px;font-style:normal;font-weight:400;text-anchor:end;" transform="rotate(-0, 35.808, 23.113494)" x="35.808" y="23.113494">30</text>
     </g>
    </g>
    <g id="text_3">
     <text style="font-family:DejaVu Sans;font-size:8px;font-style:normal;font-weight:400;" transform="translate(13.551 50.96125)rotate(-90)">Population</text>
     <text style="font-family:DejaVu Sans;font-size:8px;font-style:normal;font-weight:400;" transform="translate(22.50925 47.43)rotate(-90)">rate [Hz]</text>
    </g>
   </g>
   <g id="line2d_3">
    <path clip-path="url(#pd3fc70ffd2)" d="M 43.308 44.985149 
L 43.897391 49.099557 
L 44.429281 51.473744 
L 44.93242 52.782559 
L 45.334931 53.248967 
L 45.622439 53.292134 
L 45.866821 53.098124 
L 46.139953 52.561871 
L 46.427461 51.408447 
L 46.714969 49.136821 
L 46.988102 44.989882 
L 47.27561 36.687984 
L 47.678121 16.808292 
L 47.99438 6.265252 
L 48.037506 6.08126 
L 48.080632 6.234215 
L 48.195635 8.160579 
L 48.468768 18.139255 
L 48.928781 32.354775 
L 49.417544 40.273488 
L 49.963809 45.832917 
L 50.553201 49.62035 
L 51.08509 51.778428 
L 51.516352 52.799683 
L 51.918863 53.229139 
L 52.206371 53.239932 
L 52.450753 53.012796 
L 52.723886 52.418765 
L 53.011394 51.161221 
L 53.284526 48.869003 
L 53.557659 44.533633 
L 53.845167 35.920925 
L 54.592687 6.424402 
L 54.664564 6.917896 
L 54.808318 10.274021 
L 55.728344 36.856784 
L 56.274609 43.698969 
L 56.835249 48.062532 
L 57.410265 50.957354 
L 57.913404 52.46736 
L 58.344666 53.120577 
L 58.660925 53.235107 
L 58.905307 53.099992 
L 59.178439 52.653052 
L 59.465947 51.644867 
L 59.73908 49.808032 
L 60.012212 46.349284 
L 60.285345 39.850483 
L 60.615979 25.707106 
L 61.075992 7.063788 
L 61.147869 6.701659 
L 61.190995 6.92032 
L 61.305998 8.95633 
L 61.607882 19.917763 
L 62.053519 32.864628 
L 62.556658 40.71965 
L 63.088548 45.958115 
L 63.692314 49.74391 
L 64.209829 51.784557 
L 64.641091 52.778834 
L 65.029226 53.178398 
L 65.316734 53.180193 
L 65.561116 52.945424 
L 65.819873 52.379252 
L 66.093006 51.219125 
L 66.380514 48.872938 
L 66.653646 44.612621 
L 66.941154 36.184104 
L 67.688675 6.916473 
L 67.774927 7.499895 
L 67.933057 11.389032 
L 68.752454 35.57184 
L 69.298719 42.8676 
L 69.844985 47.409071 
L 70.420001 50.527372 
L 70.908764 52.163671 
L 71.325651 52.94111 
L 71.67066 53.187004 
L 71.929417 53.12446 
L 72.188174 52.803183 
L 72.461307 52.063653 
L 72.748815 50.523363 
L 73.021948 47.74595 
L 73.309456 42.141924 
L 73.611339 31.174857 
L 74.229481 7.110308 
L 74.243856 7.090438 
L 74.258232 7.1065 
L 74.258232 7.1065 
L 74.330109 7.70713 
L 74.488238 11.616436 
L 75.29326 35.373962 
L 75.839526 42.731433 
L 76.385791 47.31178 
L 76.960807 50.45686 
L 77.463946 52.151901 
L 77.895207 52.944832 
L 78.225842 53.171837 
L 78.484599 53.106999 
L 78.743356 52.783416 
L 79.002113 52.090171 
L 79.275246 50.694975 
L 79.562754 47.891655 
L 79.850262 42.446847 
L 80.152145 31.751043 
L 80.784662 7.244661 
L 80.799038 7.230294 
L 80.813413 7.251525 
L 80.813413 7.251525 
L 80.88529 7.872789 
L 81.04342 11.79802 
L 81.848442 35.410795 
L 82.394707 42.743422 
L 82.940972 47.311737 
L 83.515988 50.450444 
L 84.019127 52.142508 
L 84.450389 52.933924 
L 84.781023 53.159732 
L 85.03978 53.093065 
L 85.298537 52.767639 
L 85.557295 52.070589 
L 85.844803 50.564398 
L 86.13231 47.654536 
L 86.419818 42.012442 
L 86.721702 31.024334 
L 87.325469 7.398042 
L 87.354219 7.342304 
L 87.368595 7.367574 
L 87.368595 7.367574 
L 87.440472 8.005238 
L 87.612976 12.429146 
L 88.360497 34.693519 
L 88.892387 42.137137 
L 89.438652 46.919395 
L 90.042419 50.320097 
L 90.559933 52.098315 
L 90.991195 52.908167 
L 91.336205 53.150072 
L 91.594962 53.081951 
L 91.853719 52.755057 
L 92.112476 52.053541 
L 92.399984 50.541976 
L 92.687492 47.622368 
L 92.975 41.966845 
L 93.276883 30.971773 
L 93.88065 7.480764 
L 93.909401 7.431983 
L 93.923776 7.460423 
L 93.923776 7.460423 
L 94.010029 8.338189 
L 94.196909 13.555112 
L 94.858177 33.667682 
L 95.375691 41.33049 
L 95.921956 46.403531 
L 96.511348 49.928656 
L 97.028862 51.86533 
L 97.517626 52.865851 
L 97.877011 53.139757 
L 98.135768 53.083256 
L 98.394525 52.771017 
L 98.653282 52.092824 
L 98.94079 50.626925 
L 99.228298 47.796218 
L 99.515806 42.308941 
L 99.817689 31.589085 
L 100.450207 7.507748 
L 100.478958 7.534662 
L 100.493333 7.600139 
L 100.593961 8.970402 
L 100.823967 16.324745 
L 101.355857 32.563108 
L 101.858996 40.471616 
L 102.405261 45.865037 
L 103.009028 49.644042 
L 103.540917 51.733306 
L 103.986555 52.741888 
L 104.34594 53.106134 
L 104.633448 53.109272 
L 104.892205 52.857282 
L 105.150962 52.270401 
L 105.424095 51.073811 
L 105.697227 48.829841 
L 105.97036 44.621949 
L 106.257868 36.349779 
L 106.746631 13.375228 
L 106.991013 7.599904 
L 107.019764 7.560935 
L 107.034139 7.59384 
L 107.034139 7.59384 
L 107.120391 8.492686 
L 107.307272 13.715034 
L 107.96854 33.707844 
L 108.486054 41.345411 
L 109.032319 46.405221 
L 109.621711 49.923608 
L 110.139225 51.857527 
L 110.627989 52.856194 
L 110.987374 53.128809 
L 111.246131 53.070648 
L 111.504888 52.756735 
L 111.763645 52.074806 
L 112.051153 50.601543 
L 112.338661 47.75996 
L 112.626169 42.257636 
L 112.928052 31.529723 
L 113.56057 7.606801 
L 113.603696 7.70976 
L 113.704324 9.097304 
L 113.93433 16.442124 
L 114.46622 32.598888 
L 114.969359 40.48548 
L 115.515624 45.867247 
L 116.119391 49.640453 
L 116.65128 51.726794 
L 117.096918 52.733863 
L 117.456303 53.097861 
L 117.743811 53.099516 
L 118.002568 52.846215 
L 118.261325 52.256735 
L 118.534457 51.055681 
L 118.80759 48.804924 
L 119.080723 44.586269 
L 119.368231 36.30272 
L 120.115751 7.641941 
L 120.202004 8.158209 
L 120.360133 11.855184 
L 121.208281 35.992454 
L 121.754547 43.073106 
L 122.315187 47.598223 
L 122.904578 50.674054 
L 123.450844 52.355317 
L 123.896481 53.018539 
L 124.183989 53.12687 
L 124.442746 52.988522 
L 124.701503 52.565086 
L 124.989011 51.58482 
L 125.262144 49.79258 
L 125.535276 46.443305 
L 125.808409 40.203635 
L 126.139043 26.669647 
L 126.613431 8.011856 
L 126.670933 7.670063 
L 126.728434 7.883853 
L 126.843437 9.838202 
L 127.145321 20.330104 
L 127.590958 32.909451 
L 128.094097 40.671202 
L 128.640362 45.9777 
L 129.244129 49.708956 
L 129.776019 51.766319 
L 130.207281 52.728735 
L 130.55229 53.08616 
L 130.839798 53.099882 
L 131.098555 52.860721 
L 131.357312 52.291734 
L 131.630445 51.128097 
L 131.903578 48.945067 
L 132.17671 44.85681 
L 132.464218 36.812253 
L 132.89548 16.554471 
L 133.182988 7.893362 
L 133.226114 7.69249 
L 133.26924 7.804153 
L 133.26924 7.804153 
L 133.369868 9.205671 
L 133.599875 16.541217 
L 134.131764 32.628766 
L 134.634903 40.496869 
L 135.181168 45.868831 
L 135.784935 49.637172 
L 136.316825 51.72108 
L 136.762462 52.726906 
L 137.107472 53.084314 
L 137.39498 53.097718 
L 137.653737 52.858291 
L 137.912494 52.288742 
L 138.185626 51.12417 
L 138.458759 48.93974 
L 138.731892 44.849293 
L 139.0194 36.802493 
L 139.450661 16.553947 
L 139.738169 7.909282 
L 139.781296 7.710373 
L 139.824422 7.823732 
L 139.824422 7.823732 
L 139.92505 9.227905 
L 140.155056 16.56129 
L 140.686946 32.634683 
L 141.190085 40.499055 
L 141.73635 45.869047 
L 142.340116 49.636418 
L 142.872006 51.719848 
L 143.317644 52.725436 
L 143.662653 53.082841 
L 143.950161 53.095998 
L 144.208918 52.856366 
L 144.467675 52.286383 
L 144.740808 51.121088 
L 145.01394 48.935587 
L 145.287073 44.843477 
L 145.574581 36.795034 
L 146.005843 16.553959 
L 146.293351 7.922046 
L 146.336477 7.724634 
L 146.379603 7.839277 
L 146.379603 7.839277 
L 146.480231 9.245427 
L 146.710237 16.576944 
L 147.242127 32.639215 
L 147.745266 40.500687 
L 148.291531 45.869147 
L 148.895298 49.635774 
L 149.427188 51.71884 
L 149.872825 52.724251 
L 150.217835 53.081663 
L 150.505343 53.094631 
L 150.7641 52.854845 
L 151.022857 52.28453 
L 151.295989 51.118684 
L 151.569122 48.93237 
L 151.842255 44.839015 
L 152.129762 36.789412 
L 152.561024 16.554388 
L 152.848532 7.932295 
L 152.891659 7.73601 
L 152.934785 7.851614 
L 152.934785 7.851614 
L 153.035413 9.259208 
L 153.265419 16.589093 
L 153.797309 32.642655 
L 154.300448 40.501884 
L 154.846713 45.869163 
L 155.450479 49.63522 
L 155.982369 51.718011 
L 156.428006 52.723294 
L 156.773016 53.080722 
L 157.060524 53.093546 
L 157.319281 52.853646 
L 157.578038 52.283079 
L 157.851171 51.116818 
L 158.124303 48.929897 
L 158.397436 44.835626 
L 158.684944 36.785241 
L 159.116206 16.555119 
L 159.403714 7.940522 
L 159.44684 7.745074 
L 159.489966 7.861384 
L 159.489966 7.861384 
L 159.590594 9.270004 
L 159.8206 16.598453 
L 160.35249 32.64523 
L 160.855629 40.502736 
L 161.401894 45.869114 
L 162.005661 49.634739 
L 162.537551 51.717328 
L 162.983188 52.722519 
L 163.328197 53.079968 
L 163.615705 53.092687 
L 163.874463 52.852704 
L 164.13322 52.281948 
L 164.406352 51.11538 
L 164.679485 48.928015 
L 164.952617 44.833092 
L 165.240125 36.782219 
L 165.671387 16.556078 
L 165.958895 7.947135 
L 166.002022 7.752294 
L 166.045148 7.869107 
L 166.045148 7.869107 
L 166.145775 9.278424 
L 166.375782 16.605597 
L 166.907672 32.647117 
L 167.410811 40.503316 
L 167.957076 45.869014 
L 168.560842 49.634317 
L 169.092732 51.716759 
L 169.538369 52.721889 
L 169.883379 53.079365 
L 170.170887 53.092005 
L 170.429644 52.851965 
L 170.688401 52.281072 
L 170.961534 51.11428 
L 171.234666 48.926602 
L 171.507799 44.831235 
L 171.795307 36.780109 
L 172.226569 16.557215 
L 172.514077 7.952462 
L 172.557203 7.758046 
L 172.600329 7.875203 
L 172.600329 7.875203 
L 172.700957 9.284954 
L 172.930963 16.61098 
L 173.462853 32.648459 
L 173.965992 40.503679 
L 174.512257 45.86887 
L 175.116024 49.633942 
L 175.647914 51.716282 
L 176.093551 52.721374 
L 176.43856 53.078881 
L 176.726068 53.091467 
L 176.984826 52.851389 
L 177.243583 52.280398 
L 177.516715 51.113451 
L 177.789848 48.925563 
L 178.06298 44.829917 
L 178.350488 36.778724 
L 178.78175 16.558499 
L 179.069258 7.956769 
L 179.112384 7.762631 
L 179.155511 7.880005 
L 179.155511 7.880005 
L 179.256138 9.289981 
L 179.50052 17.16003 
L 180.018035 32.649366 
L 180.521173 40.503868 
L 181.067439 45.868692 
L 181.671205 49.633603 
L 182.203095 51.715877 
L 182.648732 52.720951 
L 182.993742 53.078492 
L 183.28125 53.091041 
L 183.540007 52.850942 
L 183.798764 52.279886 
L 184.071897 51.112837 
L 184.345029 48.924822 
L 184.618162 44.829029 
L 184.90567 36.777917 
L 185.336932 16.559896 
L 185.62444 7.960262 
L 185.667566 7.766288 
L 185.710692 7.883777 
L 185.710692 7.883777 
L 185.81132 9.293813 
L 186.055702 17.162802 
L 186.573216 32.649927 
L 187.061979 40.32513 
L 187.061979 40.32513 
" style="fill:none;stroke:#d62728;stroke-linecap:square;stroke-width:1.5;"/>
   </g>
   <g id="line2d_4">
    <path clip-path="url(#pd3fc70ffd2)" d="M 43.308 23.925157 
L 45.162426 46.986938 
L 45.665565 50.283816 
L 46.068076 51.65925 
L 46.398711 52.097018 
L 46.599966 52.080566 
L 46.801222 51.80952 
L 47.031228 51.090235 
L 47.27561 49.519094 
L 47.519992 46.312673 
L 47.778749 39.457894 
L 48.598146 13.7674 
L 48.785027 13.289801 
L 48.885654 13.462544 
L 49.058159 14.375781 
L 49.360043 17.470879 
L 50.840709 37.192073 
L 51.660106 46.456853 
L 52.163245 49.953473 
L 52.580132 51.503311 
L 52.89639 52.002344 
L 53.126397 52.033006 
L 53.327652 51.794266 
L 53.557659 51.124523 
L 53.802041 49.645958 
L 54.046422 46.636856 
L 54.290804 40.67144 
L 54.707691 23.082289 
L 55.023949 14.962601 
L 55.253956 13.434097 
L 55.340208 13.363257 
L 55.383334 13.407704 
L 55.512713 13.841261 
L 55.742719 15.619193 
L 56.274609 22.207239 
L 58.287165 47.042527 
L 58.775928 50.195197 
L 59.178439 51.562925 
L 59.480323 51.97535 
L 59.695954 51.972425 
L 59.897209 51.708847 
L 60.127216 50.99332 
L 60.371597 49.425963 
L 60.630355 45.97069 
L 60.889112 38.974133 
L 61.679759 14.044989 
L 61.881014 13.418272 
L 61.967267 13.530617 
L 62.125396 14.249403 
L 62.398528 16.798118 
L 63.36168 29.30487 
L 64.655466 45.350992 
L 65.187356 49.42028 
L 65.618618 51.238086 
L 65.963627 51.883457 
L 66.193634 51.959057 
L 66.394889 51.767859 
L 66.624895 51.169437 
L 66.869277 49.822575 
L 67.113659 47.092185 
L 67.372416 41.218239 
L 67.731801 26.474596 
L 68.091186 15.585391 
L 68.335568 13.599586 
L 68.450571 13.470776 
L 68.479322 13.498755 
L 68.6087 13.901281 
L 68.824331 15.485985 
L 69.284344 21.018098 
L 71.397528 47.001506 
L 71.886291 50.138736 
L 72.288802 51.500112 
L 72.590686 51.908009 
L 72.806317 51.897314 
L 73.007572 51.625808 
L 73.237579 50.890777 
L 73.467585 49.408972 
L 73.726342 46.019646 
L 73.985099 39.176902 
L 74.790122 14.104377 
L 74.991377 13.50347 
L 75.092005 13.665592 
L 75.26451 14.560474 
L 75.566393 17.59864 
L 76.932056 35.555537 
L 77.82333 45.865188 
L 78.35522 49.695235 
L 78.772107 51.30582 
L 79.102741 51.855793 
L 79.332747 51.888217 
L 79.534003 51.652926 
L 79.764009 50.976433 
L 80.008391 49.483634 
L 80.267148 46.205802 
L 80.525905 39.569281 
L 81.359678 14.034902 
L 81.546559 13.533997 
L 81.647186 13.700331 
L 81.819691 14.601029 
L 82.121574 17.640917 
L 83.501613 35.755126 
L 84.392887 45.985352 
L 84.924777 49.756056 
L 85.356039 51.360073 
L 85.672298 51.847489 
L 85.887929 51.867278 
L 86.089184 51.62976 
L 86.319191 50.947775 
L 86.549197 49.562462 
L 86.793579 46.639575 
L 87.052336 40.444009 
L 87.497973 22.154779 
L 87.799857 15.047953 
L 88.029863 13.613406 
L 88.116115 13.565534 
L 88.144866 13.597065 
L 88.274245 14.015323 
L 88.504251 15.757201 
L 89.021765 22.052908 
L 91.063072 46.966159 
L 91.566211 50.156174 
L 91.968722 51.476745 
L 92.270605 51.856724 
L 92.471861 51.832529 
L 92.673117 51.554014 
L 92.903123 50.799215 
L 93.16188 49.009717 
L 93.406262 45.554712 
L 93.665019 38.394788 
L 94.426915 14.362489 
L 94.642546 13.576508 
L 94.728798 13.672828 
L 94.886928 14.364143 
L 95.16006 16.858977 
L 96.080086 28.649688 
L 97.431373 45.305361 
L 97.963263 49.341024 
L 98.394525 51.14993 
L 98.739534 51.786633 
L 98.969541 51.850455 
L 99.170796 51.647933 
L 99.386427 51.075471 
L 99.630809 49.73296 
L 99.875191 47.019581 
L 100.133948 41.229701 
L 100.493333 26.750443 
L 100.852718 15.834368 
L 101.0971 13.753467 
L 101.212103 13.593788 
L 101.240854 13.615089 
L 101.355857 13.926333 
L 101.557112 15.265423 
L 101.959624 19.875758 
L 104.216561 47.30057 
L 104.690949 50.202685 
L 105.079085 51.45607 
L 105.380968 51.834699 
L 105.582224 51.808325 
L 105.783479 51.527102 
L 106.013486 50.76309 
L 106.272243 48.960424 
L 106.516625 45.482262 
L 106.789757 37.76362 
L 107.508527 14.623481 
L 107.724158 13.618104 
L 107.810411 13.647633 
L 107.824786 13.672898 
L 107.96854 14.22693 
L 108.212922 16.266613 
L 108.87419 24.512149 
L 110.68549 46.592627 
L 111.203005 49.997955 
L 111.619891 51.417793 
L 111.921774 51.820134 
L 112.137405 51.799783 
L 112.338661 51.517606 
L 112.554292 50.818173 
L 112.813049 49.081457 
L 113.057431 45.73239 
L 113.316188 38.778376 
L 114.09246 14.387307 
L 114.30809 13.614083 
L 114.394343 13.714824 
L 114.552472 14.412994 
L 114.825605 16.911917 
L 115.74563 28.678241 
L 117.096918 45.294475 
L 117.628807 49.322264 
L 118.060069 51.129084 
L 118.405079 51.763825 
L 118.635085 51.824985 
L 118.836341 51.619809 
L 119.051972 51.040934 
L 119.296354 49.686204 
L 119.540735 46.95005 
L 119.799492 41.130124 
L 120.158877 26.668969 
L 120.518262 15.842041 
L 120.762644 13.779506 
L 120.877647 13.62436 
L 120.906398 13.646782 
L 121.021401 13.962485 
L 121.222657 15.306878 
L 121.625168 19.912893 
L 123.882106 47.288154 
L 124.356494 50.18641 
L 124.744629 51.438219 
L 125.046513 51.815746 
L 125.247768 51.787552 
L 125.449024 51.504022 
L 125.67903 50.732105 
L 125.937787 48.918212 
L 126.182169 45.420203 
L 126.455302 37.678375 
L 127.159696 14.774653 
L 127.389703 13.641192 
L 127.475955 13.673434 
L 127.49033 13.699183 
L 127.634084 14.257198 
L 127.878466 16.300024 
L 128.539734 24.534755 
L 130.351035 46.583795 
L 130.868549 49.985288 
L 131.285435 51.403621 
L 131.587319 51.80512 
L 131.80295 51.78324 
L 132.004205 51.499246 
L 132.234212 50.72571 
L 132.492969 48.909532 
L 132.737351 45.40721 
L 133.010483 37.661152 
L 133.714878 14.777635 
L 133.944884 13.646022 
L 134.031136 13.678812 
L 134.045512 13.704645 
L 134.189266 14.263435 
L 134.433648 16.306838 
L 135.094916 24.539286 
L 136.906216 46.581849 
L 137.42373 49.982592 
L 137.840617 51.400644 
L 138.1425 51.801993 
L 138.358131 51.779813 
L 138.559387 51.495461 
L 138.789393 50.720658 
L 139.04815 48.902699 
L 139.292532 45.397028 
L 139.565665 37.647749 
L 140.270059 14.780091 
L 140.500066 13.64988 
L 140.586318 13.683086 
L 140.600693 13.708984 
L 140.744447 14.268359 
L 140.988829 16.312179 
L 141.650097 24.542791 
L 143.461398 46.580231 
L 143.978912 49.980407 
L 144.395798 51.398254 
L 144.697682 51.799497 
L 144.913313 51.777089 
L 145.114568 51.492465 
L 145.344575 50.716675 
L 145.603332 48.897339 
L 145.847714 45.389088 
L 146.120846 37.637398 
L 146.825241 14.782137 
L 147.055247 13.652963 
L 147.141499 13.686479 
L 147.155875 13.712424 
L 147.299629 14.272234 
L 147.544011 16.316343 
L 148.205279 24.545468 
L 150.016579 46.57887 
L 150.534093 49.978624 
L 150.95098 51.396329 
L 151.252863 51.797504 
L 151.468494 51.774924 
L 151.66975 51.490093 
L 151.899756 50.71354 
L 152.158513 48.89315 
L 152.402895 45.382933 
L 152.676028 37.629471 
L 153.380422 14.783855 
L 153.610428 13.65543 
L 153.696681 13.689171 
L 153.711056 13.71515 
L 153.85481 14.275274 
L 154.099192 16.319572 
L 154.76046 24.547492 
L 156.57176 46.577717 
L 157.089275 49.977165 
L 157.506161 51.394778 
L 157.808045 51.795913 
L 158.023676 51.773206 
L 158.224931 51.488222 
L 158.469313 50.640419 
L 158.72807 48.746423 
L 158.986827 44.783248 
L 159.25996 36.519018 
L 159.906853 15.090627 
L 160.136859 13.694761 
L 160.223112 13.65644 
L 160.251862 13.691301 
L 160.381241 14.123307 
L 160.611247 15.87932 
L 161.143137 22.331193 
L 163.170068 46.931188 
L 163.673207 50.108577 
L 164.075718 51.424323 
L 164.377602 51.801259 
L 164.578857 51.771845 
L 164.780113 51.486749 
L 165.024494 50.638488 
L 165.268876 48.887384 
L 165.513258 45.374588 
L 165.786391 37.618988 
L 166.490785 14.786536 
L 166.720791 13.658977 
L 166.807044 13.692984 
L 166.821419 13.719004 
L 166.965173 14.279492 
L 167.209555 16.323952 
L 167.870823 24.550094 
L 169.682123 46.575881 
L 170.199638 49.974975 
L 170.616524 51.392512 
L 170.918408 51.793627 
L 171.134039 51.770767 
L 171.335294 51.485594 
L 171.579676 50.63699 
L 171.824058 48.885463 
L 172.068439 45.371876 
L 172.341572 37.615723 
L 173.045966 14.787595 
L 173.275973 13.660244 
L 173.362225 13.69431 
L 173.376601 13.72034 
L 173.520355 14.280914 
L 173.764736 16.325376 
L 174.426005 24.550863 
L 176.237305 46.575137 
L 176.754819 49.974148 
L 177.171706 51.391688 
L 177.473589 51.792815 
L 177.68922 51.769915 
L 177.890476 51.484692 
L 178.134857 50.635838 
L 178.379239 48.884012 
L 178.623621 45.369879 
L 178.896753 37.613424 
L 179.601148 14.788517 
L 179.831154 13.661259 
L 179.917407 13.695353 
L 179.931782 13.721387 
L 180.075536 14.282 
L 180.319918 16.326424 
L 180.981186 24.551372 
L 182.792486 46.574479 
L 183.310001 49.973452 
L 183.726887 51.391014 
L 184.028771 51.792164 
L 184.244402 51.769242 
L 184.445657 51.483982 
L 184.690039 50.634961 
L 184.934421 48.882935 
L 185.178802 45.368449 
L 185.451935 37.611895 
L 186.156329 14.78933 
L 186.386336 13.662075 
L 186.472588 13.696171 
L 186.486964 13.722205 
L 186.630718 14.282819 
L 186.875099 16.327175 
L 187.061979 18.498571 
L 187.061979 18.498571 
" style="fill:none;stroke:#1f77b4;stroke-linecap:square;stroke-width:1.5;"/>
   </g>
   <g id="text_4">
    <g id="patch_3">
     <path d="M 57.6822 21.83525 
C 59.719291 21.83525 61.673223 21.025905 63.113664 19.585464 
C 64.554105 18.145023 65.36345 16.191091 65.36345 14.154 
C 65.36345 12.116909 64.554105 10.162977 63.113664 8.722536 
C 61.673223 7.282095 59.719291 6.47275 57.6822 6.47275 
C 55.645109 6.47275 53.691177 7.282095 52.250736 8.722536 
C 50.810295 10.162977 50.00095 12.116909 50.00095 14.154 
C 50.00095 16.191091 50.810295 18.145023 52.250736 19.585464 
C 53.691177 21.025905 55.645109 21.83525 57.6822 21.83525 
z
" style="fill:#ffffff;opacity:0.98;stroke:#808080;stroke-linejoin:miter;"/>
    </g>
    <text style="font-family:DejaVu Sans;font-size:8px;font-style:normal;font-weight:400;text-anchor:middle;" transform="rotate(-0, 57.6822, 16.3615)" x="57.6822" y="16.3615">A2</text>
   </g>
  </g>
  <g id="axes_2">
   <g id="patch_4">
    <path d="M 43.308 112.5 
L 187.05 112.5 
L 187.05 60.33 
L 43.308 60.33 
z
" style="fill:#ffffff;"/>
   </g>
   <g id="matplotlib.axis_3">
    <g id="xtick_1">
     <g id="line2d_5">
      <defs>
       <path d="M 0 0 
L 0 4 
" id="m8b3fddb2a0" style="stroke:#000000;"/>
      </defs>
      <g>
       <use style="stroke:#000000;" x="43.308" xlink:href="#m8b3fddb2a0" y="112.5"/>
      </g>
     </g>
     <g id="text_5">
      <text style="font-family:DejaVu Sans;font-size:6px;font-style:normal;font-weight:400;text-anchor:middle;" transform="rotate(-0, 43.308, 124.559062)" x="43.308" y="124.559062">0.0</text>
     </g>
    </g>
    <g id="xtick_2">
     <g id="line2d_6">
      <g>
       <use style="stroke:#000000;" x="115.179" xlink:href="#m8b3fddb2a0" y="112.5"/>
      </g>
     </g>
     <g id="text_6">
      <text style="font-family:DejaVu Sans;font-size:6px;font-style:normal;font-weight:400;text-anchor:middle;" transform="rotate(-0, 115.179, 124.559062)" x="115.179" y="124.559062">0.5</text>
     </g>
    </g>
    <g id="xtick_3">
     <g id="line2d_7">
      <g>
       <use style="stroke:#000000;" x="187.05" xlink:href="#m8b3fddb2a0" y="112.5"/>
      </g>
     </g>
     <g id="text_7">
      <text style="font-family:DejaVu Sans;font-size:6px;font-style:normal;font-weight:400;text-anchor:middle;" transform="rotate(-0, 187.05, 124.559062)" x="187.05" y="124.559062">1.0</text>
     </g>
    </g>
    <g id="text_8">
     <text style="font-family:DejaVu Sans;font-size:8px;font-style:normal;font-weight:400;text-anchor:middle;" transform="rotate(-0, 115.179, 135.885625)" x="115.179" y="135.885625">Time [s]</text>
    </g>
   </g>
   <g id="matplotlib.axis_4">
    <g id="ytick_3">
     <g id="line2d_8">
      <g>
       <use style="stroke:#000000;" x="43.308" xlink:href="#mc82a9331a4" y="110.157889"/>
      </g>
     </g>
     <g id="text_9">
      <text style="font-family:DejaVu Sans;font-size:6px;font-style:normal;font-weight:400;text-anchor:end;" transform="rotate(-0, 35.808, 112.43742)" x="35.808" y="112.43742">0</text>
     </g>
    </g>
    <g id="ytick_4">
     <g id="line2d_9">
      <g>
       <use style="stroke:#000000;" x="43.308" xlink:href="#mc82a9331a4" y="78.701975"/>
      </g>
     </g>
     <g id="text_10">
      <text style="font-family:DejaVu Sans;font-size:6px;font-style:normal;font-weight:400;text-anchor:end;" transform="rotate(-0, 35.808, 80.981507)" x="35.808" y="80.981507">50</text>
     </g>
    </g>
    <g id="text_11">
     <text style="font-family:DejaVu Sans;font-size:8px;font-style:normal;font-weight:400;" transform="translate(13.551 107.57125)rotate(-90)">Population</text>
     <text style="font-family:DejaVu Sans;font-size:8px;font-style:normal;font-weight:400;" transform="translate(22.50925 104.04)rotate(-90)">rate [Hz]</text>
    </g>
   </g>
   <g id="line2d_10">
    <path clip-path="url(#pf3c7268f3b)" d="M 43.308 108.710804 
L 45.018672 108.293957 
L 46.02495 107.83395 
L 46.772471 107.261179 
L 47.390613 106.480414 
L 47.908127 105.426982 
L 48.382515 103.90955 
L 48.856904 101.571311 
L 49.43192 97.434598 
L 50.36632 90.70719 
L 50.783207 89.218276 
L 51.142592 88.66049 
L 51.458851 88.536907 
L 51.818236 88.650424 
L 52.364501 89.095491 
L 53.485782 90.367091 
L 57.410265 94.910286 
L 60.788484 98.410892 
L 64.626715 102.439638 
L 66.265511 104.502511 
L 67.760552 106.758309 
L 69.428098 109.219238 
L 70.04624 109.762638 
L 70.621256 110.014898 
L 71.411903 110.117713 
L 73.251954 110.0953 
L 95.548196 108.951901 
L 98.063891 108.543719 
L 99.501431 108.068535 
L 100.335204 107.574977 
L 101.010847 106.915475 
L 101.585863 105.992642 
L 102.074627 104.743133 
L 102.53464 102.915347 
L 103.023403 100.000448 
L 104.619072 89.453478 
L 104.978457 88.751043 
L 105.294716 88.545776 
L 105.62535 88.590876 
L 106.099738 88.915601 
L 106.947887 89.816143 
L 112.712421 96.368499 
L 119.468858 103.546491 
L 120.9639 105.623891 
L 123.594598 109.46603 
L 124.270241 109.920448 
L 124.888383 110.08094 
L 126.02404 110.127949 
L 128.769741 109.994979 
L 133.111111 109.789787 
L 137.39498 109.656525 
L 143.820782 109.388646 
L 147.975272 109.106663 
L 151.252863 108.694167 
L 152.891659 108.286665 
L 153.984189 107.768354 
L 154.688583 107.195549 
L 155.277975 106.422156 
L 155.795489 105.336305 
L 156.255502 103.826683 
L 156.715514 101.532546 
L 157.29053 97.382245 
L 158.224931 90.675889 
L 158.641818 89.203115 
L 159.001203 88.6551 
L 159.317461 88.536955 
L 159.676846 88.654152 
L 160.223112 89.101896 
L 161.358768 90.392112 
L 165.240125 94.886134 
L 168.790849 98.562341 
L 172.456575 102.413878 
L 174.109746 104.491559 
L 175.604787 106.745664 
L 177.301084 109.243198 
L 177.890476 109.757328 
L 178.465492 110.012734 
L 179.270514 110.118022 
L 181.110565 110.095002 
L 187.061979 109.789655 
L 187.061979 109.789655 
" style="fill:none;stroke:#d62728;stroke-linecap:square;stroke-width:1.5;"/>
   </g>
   <g id="line2d_11">
    <path clip-path="url(#pf3c7268f3b)" d="M 43.308 93.032609 
L 44.343029 91.765312 
L 45.291805 90.270539 
L 46.154329 88.451071 
L 46.916225 86.258868 
L 47.591869 83.616618 
L 48.267512 80.048442 
L 49.029408 74.735324 
L 50.294443 65.813903 
L 50.768832 64.033933 
L 51.200093 63.200091 
L 51.61698 62.835401 
L 52.105744 62.704899 
L 52.810138 62.772671 
L 54.075173 63.152309 
L 56.447114 64.118874 
L 58.962808 65.374305 
L 61.01849 66.640036 
L 62.671661 67.913433 
L 63.994198 69.2084 
L 65.086728 70.591275 
L 66.006753 72.121864 
L 66.7974 73.874882 
L 67.51617 76.029462 
L 68.177438 78.734646 
L 68.824331 82.342083 
L 69.543101 87.716535 
L 71.2969 101.590518 
L 71.756913 103.225658 
L 72.159424 103.912008 
L 72.547559 104.157044 
L 73.036323 104.181821 
L 74.028225 103.960526 
L 75.077629 103.516863 
L 76.385791 102.695967 
L 78.16834 101.610665 
L 79.102741 101.331743 
L 80.310274 101.210537 
L 82.064073 101.013187 
L 83.257231 100.630387 
L 84.737897 99.87041 
L 87.181715 98.679102 
L 89.582406 97.960159 
L 91.494334 97.279401 
L 92.960625 96.489227 
L 94.700048 95.302116 
L 96.439471 93.836584 
L 97.833884 92.339702 
L 98.926415 90.784082 
L 99.817689 89.072459 
L 100.579585 87.094498 
L 101.28398 84.622366 
L 101.959624 81.404327 
L 102.678394 76.810196 
L 104.432192 64.887501 
L 104.877829 63.607311 
L 105.294716 63.013219 
L 105.740353 62.755286 
L 106.300994 62.707507 
L 107.192268 62.888001 
L 108.917316 63.499971 
L 111.490512 64.644832 
L 113.804952 65.904941 
L 115.688129 67.176748 
L 117.18317 68.447751 
L 118.405079 69.77729 
L 119.411357 71.202693 
L 120.273881 72.816273 
L 121.035777 74.729604 
L 121.740171 77.145148 
L 122.40144 80.259167 
L 123.062708 84.496973 
L 123.882106 91.350477 
L 124.974636 100.245543 
L 125.477775 102.62567 
L 125.894661 103.656711 
L 126.268422 104.064615 
L 126.685308 104.192064 
L 127.346576 104.117357 
L 128.496608 103.761527 
L 129.574763 103.185855 
L 132.622347 101.427453 
L 133.700502 101.243098 
L 136.345576 100.922944 
L 137.509983 100.479945 
L 142.124486 98.353447 
L 145.387701 97.294235 
L 146.839616 96.517852 
L 148.60779 95.316095 
L 150.361589 93.840402 
L 151.756002 92.344707 
L 152.848532 90.790722 
L 153.739807 89.08131 
L 154.501703 87.106432 
L 155.206098 84.638471 
L 155.881741 81.426237 
L 156.600511 76.838873 
L 158.368685 64.847581 
L 158.814323 63.586497 
L 159.231209 63.00364 
L 159.676846 62.75224 
L 160.237487 62.70831 
L 161.128762 62.891002 
L 162.868185 63.50986 
L 165.441381 64.657022 
L 167.75582 65.91998 
L 169.624622 67.184643 
L 171.119663 68.457761 
L 172.327197 69.772363 
L 173.333474 71.196237 
L 174.195998 72.807683 
L 174.957894 74.71796 
L 175.662289 77.129185 
L 176.323557 80.237468 
L 176.984826 84.467758 
L 177.804223 91.314537 
L 178.896753 100.221325 
L 179.399892 102.612069 
L 179.816779 103.650141 
L 180.190539 104.062101 
L 180.59305 104.190859 
L 181.239943 104.124157 
L 182.389975 103.775245 
L 183.46813 103.205981 
L 186.587591 101.416747 
L 187.061979 101.312133 
L 187.061979 101.312133 
" style="fill:none;stroke:#1f77b4;stroke-linecap:square;stroke-width:1.5;"/>
   </g>
   <g id="text_12">
    <g id="patch_5">
     <path d="M 57.6822 78.453375 
C 59.721446 78.453375 61.677444 77.643174 63.119409 76.201209 
C 64.561374 74.759244 65.371575 72.803246 65.371575 70.764 
C 65.371575 68.724754 64.561374 66.768756 63.119409 65.326791 
C 61.677444 63.884826 59.721446 63.074625 57.6822 63.074625 
C 55.642954 63.074625 53.686956 63.884826 52.244991 65.326791 
C 50.803026 66.768756 49.992825 68.724754 49.992825 70.764 
C 49.992825 72.803246 50.803026 74.759244 52.244991 76.201209 
C 53.686956 77.643174 55.642954 78.453375 57.6822 78.453375 
z
" style="fill:#ffffff;opacity:0.98;stroke:#808080;stroke-linejoin:miter;"/>
    </g>
    <text style="font-family:DejaVu Sans;font-size:8px;font-style:normal;font-weight:400;text-anchor:middle;" transform="rotate(-0, 57.6822, 72.9715)" x="57.6822" y="72.9715">B3</text>
   </g>
  </g>
 </g>
 <defs>
  <clipPath id="pd3fc70ffd2">
   <rect height="52.17" width="143.742" x="43.308" y="3.72"/>
  </clipPath>
  <clipPath id="pf3c7268f3b">
   <rect height="52.17" width="143.742" x="43.308" y="60.33"/>
  </clipPath>
 </defs>
</svg>
